<?xml version="1.0" encoding="UTF-8" standalone="no"?>
<svg xmlns="http://www.w3.org/2000/svg" viewBox="0 0 512 512" width="512" height="512">
  <rect width="512" height="512" fill="#f57e25" rx="20" ry="20"/>
  <g fill="#ffffff">
    <path d="M90 180h95v30H120v30h60v30h-60v60H90z"/>
    <path d="M195 180h80c27.614 0 50 22.386 50 50v50c0 27.614-22.386 50-50 50h-80V180zm30 30v90h50c11.046 0 20-8.954 20-20v-50c0-11.046-8.954-20-20-20h-50z"/>
    <path d="M340 180h90v30h-30v120h-30V210h-30z"/>
  </g>
</svg>